<svg width="85" height="30" viewBox="0 0 85 30" fill="none" xmlns="http://www.w3.org/2000/svg">
<path d="M9.37614 29.9878C6.84349 29.8882 4.7714 29.2019 3.1512 27.9272C2.84199 27.6837 2.10518 26.9536 1.85798 26.6457C1.20097 25.8275 0.754287 25.0313 0.456354 24.1479C-0.460431 21.4284 0.0114055 17.86 1.80594 13.9436C3.34245 10.5908 5.71334 7.26536 9.84971 2.65971C10.459 1.98201 12.2735 0 12.2852 0C12.2895 0 12.1907 0.169641 12.0662 0.376217C10.9907 2.16024 10.0704 4.26164 9.56912 6.08088C8.76379 8.99999 8.86093 11.5051 9.85361 13.4476C10.5384 14.7858 11.7123 15.945 13.0324 16.5857C15.3435 17.7071 18.727 17.7999 22.859 16.8572C23.1435 16.7919 37.2405 13.086 54.1858 8.62163C71.1311 4.15685 84.9978 0.506776 85 0.509782C85.0048 0.513647 45.6312 17.1986 25.1917 25.8546C21.9548 27.225 21.0892 27.5712 19.5674 28.1003C15.6774 29.4531 12.1928 30.0986 9.37614 29.9878Z" fill="black"/>
</svg>
